<?xml version="1.0" encoding="UTF-8" standalone="no"?>
<!-- Created with Inkscape (http://www.inkscape.org/) -->

<svg
   width="210mm"
   height="297mm"
   viewBox="0 0 210 297"
   version="1.1"
   id="svg5"
   inkscape:version="1.1.2 (0a00cf5339, 2022-02-04)"
   sodipodi:docname="cat.svg"
   xmlns:inkscape="http://www.inkscape.org/namespaces/inkscape"
   xmlns:sodipodi="http://sodipodi.sourceforge.net/DTD/sodipodi-0.dtd"
   xmlns="http://www.w3.org/2000/svg"
   xmlns:svg="http://www.w3.org/2000/svg">
  <sodipodi:namedview
     id="namedview7"
     pagecolor="#ffffff"
     bordercolor="#666666"
     borderopacity="1.0"
     inkscape:pageshadow="2"
     inkscape:pageopacity="0.0"
     inkscape:pagecheckerboard="0"
     inkscape:document-units="mm"
     showgrid="false"
     inkscape:zoom="0.74118967"
     inkscape:cx="31.031193"
     inkscape:cy="561.93443"
     inkscape:window-width="1920"
     inkscape:window-height="1003"
     inkscape:window-x="0"
     inkscape:window-y="0"
     inkscape:window-maximized="1"
     inkscape:current-layer="layer1" />
  <defs
     id="defs2" />
  <g
     inkscape:label="Layer 1"
     inkscape:groupmode="layer"
     id="layer1">
    <path
       style="fill:#000000;stroke-width:0.264583"
       d="m 67.032219,158.62046 c 0.10398,-0.3638 0.72159,-1.73302 1.37245,-3.04271 5.47491,-11.01676 18.48675,-19.35558 34.206621,-21.92176 4.50655,-0.73568 5.23017,-0.7093 1.71979,0.0627 -13.068811,2.87403 -22.345661,7.29967 -29.217201,13.93843 -3.17382,3.06631 -5.26871,5.81964 -7.05271,9.26946 -0.66991,1.29544 -1.13294,2.05769 -1.02895,1.69389 z m 37.345371,-0.70315 c -0.36223,-0.36222 -0.16319,-2.49374 0.36459,-3.90434 0.73924,-1.9758 2.54458,-3.91751 4.56902,-4.91414 1.36152,-0.67027 2.15214,-0.85124 4.67911,-1.07103 5.35093,-0.46542 7.78085,-1.37248 13.12197,-4.8983 5.40785,-3.56986 7.82422,-7.29042 7.80926,-12.02413 -0.008,-2.38981 -0.66974,-3.91254 -2.53199,-5.82241 -1.37435,-1.40951 -2.79076,-3.29757 -2.79076,-3.72007 0,-0.11365 0.37057,-0.28803 0.82348,-0.3875 1.18687,-0.26068 2.77381,-1.81294 3.32409,-3.25144 0.93249,-2.43762 0.32628,-5.93148 -1.09086,-6.28716 -0.39918,-0.10019 -0.8456,-0.0357 -1.07577,0.15527 -0.56469,0.46865 -0.48785,1.51551 0.13572,1.84923 0.42079,0.2252 0.52917,0.55399 0.52917,1.60531 0,1.6855 -0.52096,2.92692 -1.52971,3.64521 -1.33231,0.94869 -1.96304,0.86137 -2.56959,-0.35573 -0.45656,-0.91614 -0.52541,-1.57376 -0.5124,-4.89479 0.0148,-3.78251 0.0326,-3.89598 1.26735,-8.06979 1.63197,-5.51666 1.96697,-7.737202 1.54154,-10.218112 -0.45928,-2.67828 -0.85229,-3.19346 -0.66202,-0.86779 0.18639,2.27824 -0.12207,5.652012 -0.46695,5.10727 -0.12931,-0.20425 -0.23694,-0.77335 -0.23917,-1.26466 -0.007,-1.46281 -1.03975,-5.34193 -1.87608,-7.04421 -0.42896,-0.87312 -0.71051,-1.34937 -0.62568,-1.05833 0.6781,2.32623 0.90646,3.65769 0.88309,5.14882 l -0.0271,1.73035 -0.34733,-1.98438 c -0.74579,-4.26089 -2.24597,-7.14123 -5.14259,-9.87376 -2.49015,-2.34907 -3.42328,-2.78209 -1.49105,-0.69192 2.01912,2.18417 3.09553,4.45146 3.23291,6.80963 l 0.10322,1.77168 -0.47756,-1.5875 c -1.30683,-4.34419 -4.38663,-7.72105 -9.27773,-10.17259 -1.8476,-0.92607 -2.46431,-0.94024 -0.97939,-0.0225 1.30458,0.80628 2.61839,2.48842 3.6271,4.644 0.77339,1.65269 0.86577,2.11873 0.9673,4.87978 0.0617,1.67891 0.0307,2.97515 -0.069,2.88053 -0.0997,-0.0946 -0.34725,-0.96552 -0.55015,-1.93532 -0.81842,-3.91161 -3.65383,-8.00494 -7.15449,-10.32854 -1.35833,-0.90162 -3.28909,-1.85149 -3.28909,-1.61814 0,0.0595 0.56554,0.47249 1.25677,0.91767 1.75982,1.1334 4.35859,3.84759 5.48444,5.72804 1.15338,1.92643 2.12633,4.93279 2.37615,7.34219 0.10184,0.98227 0.12461,1.78594 0.0506,1.78594 -0.074,0 -0.27404,-0.68461 -0.44449,-1.52136 -0.31595,-1.55105 -1.8152,-5.47509 -2.01538,-5.2749 -0.0607,0.0607 0.17789,1.22769 0.53013,2.59339 0.35225,1.36569 0.72041,3.13792 0.81815,3.93828 0.0977,0.80037 0.54587,3.30068 0.99584,5.556252 0.90198,4.52134 1.03753,7.29563 0.63393,12.97438 -0.21995,3.09481 -0.19805,3.40229 0.3268,4.5888 0.95726,2.16404 -0.0651,3.03644 -2.21736,1.89208 -0.69288,-0.36841 -1.56948,-0.66906 -1.94799,-0.6681 -0.37851,0.001 -2.65273,0.53956 -5.05382,1.1969 -6.40343,1.75305 -8.994741,2.2408 -12.832291,2.41539 -5.11313,0.23263 -6.96523,-0.17895 -11.73227,-2.60713 -4.38704,-2.23463 -5.24068,-2.88955 -1.44514,-1.10874 3.54706,1.66424 4.35342,2.00256 4.47739,1.8786 0.15183,-0.15184 -4.18685,-3.02721 -6.38123,-4.22902 -2.23827,-1.22585 -1.40909,-1.04228 1.65398,0.36616 1.22934,0.56527 2.3126,1.02739 2.40726,1.02692 0.33696,-0.002 -3.03184,-2.1608 -4.72314,-3.02718 -1.94449,-0.99607 -4.22416,-1.73447 -5.35487,-1.73447 -0.44018,0 -0.69236,-0.11161 -0.59782,-0.26459 0.24694,-0.39954 3.2544,-0.31723 5.03764,0.13787 1.67737,0.42809 4.36648,1.69547 9.51445,4.48415 3.01558,1.63357 6.36097,2.99582 6.64921,2.70759 0.0732,-0.0732 -0.32135,-0.28041 -0.8768,-0.46043 -1.48499,-0.48128 -3.59319,-1.57911 -7.1031,-3.69887 -5.89692,-3.56136 -8.87303,-4.81093 -12.55994,-5.2735 l -1.98437,-0.24896 2.51354,0.0925 c 1.67608,0.0617 3.03489,0.27742 4.07831,0.64759 0.86062,0.30533 1.61375,0.50616 1.67362,0.44628 0.18958,-0.18958 -3.22722,-1.98804 -4.85244,-2.55413 -0.85852,-0.29903 -2.27533,-0.69393 -3.14845,-0.87756 l -1.5875,-0.33386 1.59837,-0.18703 c 3.10303,-0.3631 7.31705,0.67083 10.96934,2.69138 0.94588,0.52329 3.68432,2.24689 6.08541,3.83023 3.95404,2.60739 6.90067,4.3553 6.21771,3.68828 -0.14552,-0.14213 -1.38709,-1.00598 -2.75904,-1.91967 -1.37195,-0.91369 -3.72148,-2.59374 -5.22119,-3.73346 -3.83365,-2.91341 -6.76231,-4.31866 -10.67289,-5.12114 -0.94589,-0.1941 -1.42214,-0.36224 -1.05834,-0.37364 0.36381,-0.0114 1.37486,0.14707 2.24678,0.35215 0.87193,0.20508 1.62428,0.33391 1.6719,0.28629 0.2131,-0.2131 -3.20297,-1.28996 -5.24159,-1.65233 -3.44941,-0.61313 -12.67961,-0.11358 -13.59759,0.73593 -0.12987,0.12018 0.40591,0.1689 1.19063,0.10826 2.92339,-0.22592 8.90464,-0.29302 10.95175,-0.12287 2.02347,0.16819 1.96873,0.17787 -1.24334,0.21976 -3.79254,0.0495 -7.5038,0.67101 -11.19208,1.87443 l -2.38125,0.77696 3.83646,-0.12204 3.83646,-0.12204 -2.77813,1.0319 c -3.81613,1.41744 -4.32341,1.62981 -4.19645,1.75676 0.0606,0.0606 0.58318,-6e-5 1.16117,-0.1349 0.578,-0.13485 2.24153,-0.30836 3.69674,-0.38558 l 2.64584,-0.14041 -2.31338,0.65758 c -2.16444,0.61524 -5.22083,1.96613 -3.63975,1.60873 0.3638,-0.0822 1.61396,-0.21223 2.77813,-0.28888 l 2.11666,-0.13934 -2.11666,0.75529 c -1.16417,0.41541 -2.59292,1.02106 -3.175,1.34588 l -1.05834,0.5906 1.05834,-0.13225 c 0.58208,-0.0727 1.71317,-0.2027 2.51354,-0.28882 l 1.45521,-0.15658 -1.47229,0.63481 c -1.65031,0.71156 -2.65174,1.30647 -3.81938,2.26893 -0.50266,0.41433 -0.59969,0.57663 -0.26458,0.44256 1.13265,-0.45316 2.69783,-0.88257 3.83645,-1.05254 l 1.19063,-0.17773 -1.56074,0.65985 c -1.8297,0.77355 -2.5932,1.39234 -1.34968,1.09386 1.26034,-0.3025 3.43056,-0.62676 3.53433,-0.52807 0.0521,0.0496 -0.34024,0.27185 -0.87188,0.49399 -1.02515,0.42833 -4.18821,2.55517 -4.03216,2.71122 0.0507,0.0507 0.73688,-0.12735 1.52474,-0.39576 1.57374,-0.53616 3.15226,-0.88945 3.15226,-0.70551 0,0.0646 -0.67809,0.44861 -1.50688,0.85328 -0.82879,0.40467 -2.10871,1.30821 -2.84427,2.00787 -0.73556,0.69965 -1.03973,1.0955 -0.67593,0.87965 0.80793,-0.47935 3.78673,-1.4903 4.39123,-1.4903 0.24154,0 -0.43931,0.57916 -1.51301,1.28703 -1.6539,1.09038 -4.09691,3.2553 -3.27509,2.90229 0.14552,-0.0625 0.92688,-0.43388 1.73636,-0.82527 0.80948,-0.39139 1.88104,-0.78402 2.38125,-0.87252 l 0.90947,-0.1609 -0.92533,0.59038 c -2.25224,1.43698 -4.03706,3.28662 -5.7149,5.92248 l -0.49249,0.7737 1.44602,-0.99469 c 1.26628,-0.87105 2.95711,-1.74333 3.37926,-1.74333 0.0778,0 -0.69403,0.58675 -1.71521,1.30389 -2.28986,1.6081 -3.62401,3.11067 -4.598,5.1784 l -0.74778,1.5875 -0.008,-2.24896 c -0.009,-2.57436 0.44662,-4.81951 1.25739,-6.19366 0.30831,-0.52255 0.49722,-0.95009 0.41981,-0.95009 -0.78843,0 -2.48366,2.10537 -3.14505,3.90594 l -0.36323,0.98885 -0.01,-1.71979 c -0.009,-1.5294 0.27716,-2.72841 1.16781,-4.89479 l 0.21755,-0.52917 -0.61153,0.52917 c -0.33634,0.29104 -0.87698,1.09695 -1.20142,1.79091 l -0.589891,1.26174 -0.155265,-0.77632 c -0.235377,-1.17689 0.305275,-3.98954 1.009538,-5.25196 0.497368,-0.89154 0.535138,-1.07411 0.182918,-0.88419 -0.743774,0.40107 -1.587192,1.43303 -2.02229,2.47437 -0.227179,0.54371 -0.456361,0.98857 -0.509294,0.98857 -0.200912,0 0.164062,-2.56523 0.530971,-3.73195 0.21074,-0.67012 0.742613,-1.7852 1.181939,-2.47794 0.439327,-0.69275 0.748104,-1.31022 0.686164,-1.37216 -0.27436,-0.27435 -1.855202,1.42873 -2.822292,3.04054 -1.121081,1.86844 -1.274429,1.79113 -0.700749,-0.35328 0.432024,-1.6149 1.515967,-3.80818 2.71357,-5.49071 1.154121,-1.62145 1.134631,-1.85338 -0.0599,-0.71275 -1.194412,1.14051 -2.102281,2.54022 -3.079761,4.74825 l -0.761341,1.71979 0.138202,-1.71979 c 0.19692,-2.45049 1.085856,-4.81227 2.707796,-7.19424 0.773799,-1.13639 1.346319,-2.06617 1.272267,-2.06617 -0.776177,0 -3.25864,3.14368 -4.206493,5.32692 l -0.386733,0.89078 -0.01036,-0.94416 c -0.02462,-2.24474 1.090335,-4.47054 4.634474,-9.25186 0.92077,-1.24219 2.03821,-3.02813 2.48319,-3.96875 0.74998,-1.58533 0.80908,-1.92327 0.80927,-4.627582 4.3e-4,-5.79069 0.77312,-9.45804 2.80518,-13.31377 0.89223,-1.69297 1.16379,-2.49553 1.16383,-3.43959 8e-5,-1.87637 0.94818,-7.25185 1.82716,-10.35949 1.58228,-5.59417 4.05768,-10.79723 7.76354,-16.31824 3.22435,-4.803649 4.75856,-6.117686 6.71437,-5.750775 1.2749,0.239173 4.15682,2.354489 6.31676,4.636465 1.72851,1.82619 7.29426,9.18353 11.78644,15.58047 1.073,1.52796 2.67001,3.50757 3.5489,4.39913 l 1.59799,1.621 3.439581,0.15429 c 1.93912,0.087 5.92113,0.56264 9.12813,1.09038 8.06591,1.32731 11.95465,1.24713 19.39293,-0.39986 4.86026,-1.07617 13.05933,-4.16114 19.03192,-7.16092 2.43194,-1.22146 3.44597,-1.3104 4.07065,-0.35701 1.04974,1.6021 -0.18463,5.57648 -4.35882,14.03431 -2.41135,4.88594 -5.93114,11.20974 -7.10993,12.77401 -0.3679,0.48819 -1.51653,1.43593 -2.55251,2.10609 -2.02661,1.31096 -4.00184,3.014502 -4.43609,3.825892 -0.14799,0.27653 0.67527,-0.31133 1.82945,-1.30634 1.15419,-0.995002 2.58184,-2.078512 3.17257,-2.407772 l 1.07404,-0.59868 -0.51619,1.35851 c -0.28391,0.74719 -0.48141,1.563852 -0.4389,1.814802 0.0425,0.25096 -0.0619,0.62407 -0.23214,0.82914 -0.47915,0.57735 -0.72914,1.82511 -0.36566,1.82511 0.21757,0 0.20303,0.15024 -0.0494,0.51064 -0.26744,0.38183 -0.31038,0.99924 -0.17022,2.4474 0.18772,1.93942 -0.0833,6.16755 -0.55461,8.65281 -0.18244,0.96199 -0.14534,1.92395 0.1358,3.52145 0.73165,4.15743 0.46712,7.66102 -0.96244,12.74713 -0.44465,1.58197 -0.70976,2.96142 -0.58914,3.06544 0.12062,0.10403 1.23134,0.45764 2.46827,0.78581 2.96643,0.78702 6.86145,2.2477 8.99583,3.37355 2.11696,1.11665 1.92974,1.0587 -3.13696,-0.97092 -2.23466,-0.89516 -5.07148,-1.88691 -6.30406,-2.20388 -2.22981,-0.57342 -2.24298,-0.57368 -2.62537,-0.0523 -0.21137,0.28823 -0.35088,0.70495 -0.31002,0.92604 0.0409,0.2211 1.81658,1.30466 3.94605,2.40792 3.79552,1.96644 8.21955,4.71403 8.60968,5.34715 0.1084,0.17591 -0.15549,0.0859 -0.58642,-0.19999 -4.05625,-2.69116 -11.86683,-6.8748 -12.43078,-6.65838 -0.79392,0.30465 -0.34539,0.92746 1.4257,1.97965 2.71906,1.61536 5.89136,4.04406 8.04103,6.15618 2.01494,1.97975 1.63678,1.7231 -2.6389,-1.79101 -3.1998,-2.62986 -6.55863,-4.85515 -7.32831,-4.85515 -0.35077,0 -0.74755,0.29979 -1.03032,0.77848 l -0.45986,0.77849 1.77359,2.06578 c 3.20234,3.72992 2.94139,3.59594 -0.78127,-0.4011 -0.88513,-0.95038 -1.39898,-1.32145 -1.57968,-1.14075 -0.1807,0.1807 0.2008,0.81102 1.17282,1.93773 2.14181,2.48267 3.02249,3.67522 4.19175,5.67611 1.59042,2.72161 1.26676,2.62721 -0.46975,-0.13702 -1.75318,-2.79076 -4.92195,-6.64731 -5.46183,-6.64731 -0.20154,0 -0.73232,0.41672 -1.17951,0.92605 -0.44719,0.50932 -0.86901,0.92604 -0.93737,0.92604 -0.0684,0 -1.0092,0.63488 -2.09074,1.41085 -2.37062,1.70084 -6.04683,3.62889 -8.35844,4.38372 -0.93158,0.3042 -3.0747,0.68512 -4.7625,0.8465 -2.58409,0.24708 -3.3138,0.42279 -4.6205,1.11258 -2.71777,1.43468 -4.81128,3.64848 -5.58868,5.9098 -0.16894,0.4914 -0.38762,0.81299 -0.48596,0.71465 z m 28.96176,-36.22505 c 1.50971,-0.7807 2.86788,-5.3588 2.14747,-7.23865 -0.20512,-0.53526 -0.27412,-0.34581 -0.41206,1.13143 -0.0911,0.97588 -0.38893,2.27721 -0.66178,2.89185 -0.47615,1.07264 -2.41447,3.1019 -2.96287,3.1019 -0.1451,0 -0.26382,0.11907 -0.26382,0.26459 0,0.40331 1.25067,0.31553 2.15306,-0.15112 z M 111.78584,115.389 c -0.15453,-2.34055 -0.72659,-5.04724 -1.1579,-5.47855 -0.11691,-0.11691 -0.238,0.62869 -0.26909,1.65689 -0.0678,2.24288 -0.74386,3.82028 -2.14892,5.01408 l -0.96843,0.82283 1.19062,-0.17434 c 0.65485,-0.0959 1.45673,-0.24063 1.78196,-0.32166 0.46459,-0.11575 0.64879,0.004 0.8594,0.55774 0.16151,0.42479 0.38798,0.63095 0.56974,0.51862 0.20961,-0.12954 0.25313,-0.92168 0.14262,-2.59561 z m -6.84542,1.64409 c 1.75072,-0.44084 3.80311,-2.51188 4.25067,-4.28931 0.48691,-1.93373 -0.15853,-4.03157 -1.67635,-5.44852 l -0.7043,-0.65749 0.28167,0.74086 c 0.39084,1.02798 0.35217,3.20102 -0.0751,4.22064 -0.83013,1.98096 -2.97288,3.60996 -4.76657,3.62371 -2.614521,0.0201 -4.895561,-3.45761 -4.556671,-6.94706 0.13541,-1.39429 0.108,-1.50696 -0.31127,-1.27954 -0.25287,0.13716 -0.80439,0.61152 -1.2256,1.05415 -0.69821,0.73369 -0.7519,0.92262 -0.60781,2.13917 0.31762,2.68185 1.86051,4.92373 4.22495,6.13904 1.975471,1.01538 3.244231,1.18835 5.166381,0.70435 z m -5.270641,-9.46705 c 0.399151,-1.07917 1.089421,-1.75897 1.089421,-1.07289 0,0.59337 1.38922,2.12106 1.9288,2.12106 1.37243,0 1.97257,-1.75235 1.00806,-2.94346 -0.38849,-0.47978 -0.74794,-0.61441 -1.58195,-0.59254 -1.75608,0.046 -3.008721,1.15558 -3.375591,2.98995 -0.25932,1.29658 0.39685,0.94279 0.93126,-0.50212 z m 35.352971,-0.91525 c 1.16416,-0.51729 1.9723,-0.94199 1.79586,-0.94377 -0.56672,-0.006 -3.09324,1.03451 -3.91253,1.61087 -0.93548,0.65809 -0.69533,0.5824 2.11667,-0.6671 z m -38.096341,-0.42375 c 0.37348,-0.60432 3.451021,-1.89969 4.863101,-2.04693 1.22306,-0.12754 1.35996,-0.18794 0.78046,-0.34431 -0.90467,-0.24411 -2.842081,0.12025 -4.117781,0.77441 -1.06842,0.54786 -2.47937,1.88733 -1.98805,1.88733 0.16229,0 0.37031,-0.12172 0.46227,-0.2705 z m -19.45054,-1.99788 c -2.89237,-0.71112 -7.70159,-0.97589 -11.71696,-0.64507 -2.06232,0.16992 -3.89311,0.38893 -4.06843,0.48671 -0.17531,0.0978 2.44148,0.14369 5.81509,0.10202 3.37361,-0.0417 6.96728,0.0326 7.98593,0.16496 2.81193,0.36551 3.71232,0.31622 1.98437,-0.10862 z m 1.02138,-1.82552 c -0.0688,-0.0688 -1.01141,-0.32611 -2.09462,-0.57173 -2.26394,-0.51336 -9.63628,-0.61601 -11.62676,-0.1619 -0.9743,0.22229 -0.25323,0.28252 3.96875,0.33155 2.83766,0.033 5.93328,0.14691 6.87917,0.25323 2.32446,0.26128 3.02202,0.29742 2.87346,0.14885 z m 29.929011,-1.92537 C 103.43758,91.550658 94.060199,84.506468 83.547879,81.789898 c -1.37507,-0.35534 -2.95878,-0.72369 -3.51936,-0.81857 -2.01092,-0.34032 -0.70244,-0.42487 2.40273,-0.15525 3.38567,0.29399 6.92421,1.17973 9.08274,2.27354 0.71924,0.36447 1.30771,0.60089 1.30771,0.52538 0,-0.29485 -3.39753,-2.62043 -5.02708,-3.44099 -3.00442,-1.51288 -8.83983,-3.04177 -11.61962,-3.04437 -1.77142,-0.002 -0.58347,-0.2784 2.38553,-0.55573 3.61113,-0.33732 7.05112,-0.0113 9.87004,0.93544 1.03268,0.34682 1.91189,0.59699 1.9538,0.55592 0.15188,-0.14878 -2.51435,-1.72922 -4.22826,-2.50635 -2.54438,-1.15368 -5.52455,-1.85224 -9.527,-2.23316 l -3.51886,-0.3349 1.85208,-0.24614 c 2.97977,-0.396 10.0502,-0.26767 12.03699,0.21848 0.94503,0.23124 1.76075,0.37792 1.81271,0.32596 0.15886,-0.15886 -2.88985,-1.61032 -4.89366,-2.32983 -2.45268,-0.88068 -5.61252,-1.47111 -9.08493,-1.69756 -2.41343,-0.15739 -2.62396,-0.20647 -1.5909,-0.3709 1.81383,-0.28871 7.59466,-0.25891 9.49186,0.0489 0.92765,0.15053 1.73763,0.2227 1.79994,0.16039 0.0623,-0.0623 -0.92942,-0.4906 -2.20386,-0.95174 -2.38038,-0.86132 -6.25016,-1.5764 -8.82336,-1.63042 l -1.45521,-0.0305 1.19063,-0.25212 c 1.47898,-0.3132 7.04087,-0.4153 8.99583,-0.16515 l 1.45521,0.1862 -1.38356,-0.64165 c -1.25381,-0.58148 -3.02068,-0.99487 -7.2154,-1.68816 -1.12252,-0.18553 -0.41171,-0.23123 3.1092,-0.19989 2.51043,0.0223 4.56426,0.007 4.56406,-0.0349 -1.9e-4,-0.0416 -0.53349,-0.30408 -1.1851,-0.5834 -1.35542,-0.581 -4.6642,-1.31091 -6.14627,-1.35585 l -1.00335,-0.0304 1.05834,-0.2309 c 0.58208,-0.12699 2.24895,-0.16977 3.70416,-0.0951 l 2.64584,0.13584 -1.01778,-0.55542 c -0.55978,-0.30549 -1.98853,-0.77476 -3.175,-1.04283 l -2.15722,-0.48742 1.61753,-0.0223 c 0.88964,-0.0123 2.24837,0.0973 3.01939,0.24355 0.77102,0.14622 1.45941,0.20829 1.52977,0.13793 0.20604,-0.20603 -2.6352,-1.44971 -3.72516,-1.63059 -0.54893,-0.0911 -1.06197,-0.26905 -1.1401,-0.39545 -0.17036,-0.27566 0.63,-0.27229 2.34508,0.01 1.65795,0.27275 1.52596,-0.13631 -0.36072,-1.11797 l -1.43371,-0.74598 1.05833,0.17064 1.05834,0.17064 -1.19063,-1.23182 c -2.1498,-2.224181 -3.57508,-2.544914 -5.1529,-1.159564 -2.76296,2.425904 -6.60897,9.183744 -8.34019,14.654564 -5.14458,16.25738 -1.49311,29.01578 8.93636,31.22404 0.97824,0.20712 1.30236,0.320492 0.72027,0.251922 -2.75231,-0.324202 -5.66681,-0.396882 -6.74687,-0.168262 -1.10839,0.234622 -1.01702,0.257252 1.32291,0.327642 5.7455,0.17283 10.55113,0.1443 10.4237,-0.0619 -0.0749,-0.121192 -0.26473,-0.220342 -0.42185,-0.220342 -0.66403,0 -6.2576,-2.94057 -7.28987,-3.83232 -0.61846,-0.53428 -1.12403,-0.87284 -1.12349,-0.75236 0.002,0.44329 1.11542,2.08859 1.80358,2.66514 0.86872,0.72784 0.37128,0.77464 -0.95521,0.0899 -2.84679,-1.46958 -4.8034,-5.38348 -4.81419,-9.63008 l -0.004,-1.53787 1.32681,0.72214 c 1.85342,1.00876 4.27138,3.45383 5.9417,6.00833 0.779,1.19136 1.36415,2.21882 1.30034,2.28326 -0.0638,0.0644 -0.82728,-0.58668 -1.6966,-1.44692 -1.64164,-1.62451 -1.91496,-1.54878 -1.07617,0.29818 0.64614,1.42277 2.02959,2.78074 3.57113,3.50535 1.18774,0.5583 5.08416,1.26397 5.75128,1.04159 0.17515,-0.0584 -0.33106,-0.4727 -1.1249,-0.92072 -1.19517,-0.67451 -2.82967,-2.03854 -1.95504,-1.63153 1.80374,0.83938 2.51174,1.08781 3.75531,1.3177 1.28656,0.23783 3.27894,0.12849 3.8534,-0.21148 0.1102,-0.0652 -0.61384,-0.52592 -1.60898,-1.02377 -0.99515,-0.49785 -2.01562,-1.1331 -2.26771,-1.41165 -0.40823,-0.45109 -0.26122,-0.43256 1.34439,0.16949 1.68012,0.62998 2.15372,0.67993 6.96213,0.73429 3.83479,0.0433 5.63487,0.17566 7.01146,0.51536 1.92904,0.47603 6.181951,2.34511 7.545801,3.316262 0.43371,0.30883 0.78682,0.46411 0.78469,0.34506 -0.008,-0.44036 -3.09741,-2.482812 -4.89091,-3.233352 -2.733641,-1.14396 -5.433491,-1.61272 -9.315411,-1.61736 -1.86152,-0.002 -3.56318,-0.11947 -3.78147,-0.26054 -0.28998,-0.1874 -0.0762,-0.26167 0.79375,-0.27578 0.65485,-0.0106 1.66688,-0.10871 2.24896,-0.21799 1.20913,-0.22701 1.08145,-0.29437 -1.79641,-0.94772 -1.78748,-0.4058 -3.19826,-0.98837 -3.47402,-1.43456 -0.0795,-0.12869 0.30271,-0.0799 0.84944,0.1085 0.54672,0.18836 1.88416,0.41606 2.97209,0.50601 1.08794,0.0899 2.63291,0.23058 3.43328,0.31252 l 1.45521,0.14897 -0.74579,-0.58869 c -0.41018,-0.32377 -1.63698,-1.04986 -2.72622,-1.61351 -1.08923,-0.56366 -1.81407,-1.02483 -1.61073,-1.02483 0.54617,0 3.09228,0.9095 4.36786,1.56025 0.61146,0.31195 1.10961,0.47546 1.10698,0.36336 -0.007,-0.31775 -1.99383,-1.89112 -3.63606,-2.88002 -0.81808,-0.49262 -1.3672,-0.89567 -1.22027,-0.89567 0.8406,0 3.1322,0.92639 4.53598,1.8337 1.95601,1.26423 1.89847,0.74464 -0.0872,-0.78728 -1.43005,-1.10328 -4.02222,-2.33514 -5.01164,-2.38165 -0.29104,-0.0137 -0.76729,-0.13517 -1.05833,-0.26997 -0.80168,-0.3713 1.62966,0.009 2.88205,0.45124 0.57032,0.20122 1.08996,0.31285 1.15475,0.24806 0.18123,-0.18123 -3.06529,-1.76945 -4.69826,-2.29843 -1.1863,-0.38427 -1.30853,-0.47329 -0.66146,-0.4817 1.2497,-0.0162 3.94061,0.6976 5.78901,1.5357 4.73667,2.14771 10.098881,7.06846 14.524751,13.32897 0.90017,1.273312 1.68005,2.315112 1.73307,2.315112 0.053,0 -0.28616,-0.68461 -0.75373,-1.52136 z M 73.936549,91.176688 c -1.12291,-1.44056 -3.10352,-3.64285 -4.40136,-4.89397 -1.29784,-1.25112 -2.24082,-2.27476 -2.09551,-2.27476 0.14531,0 0.8789,0.31149 1.63019,0.6922 1.65083,0.83654 4.12807,3.14528 5.2488,4.89179 0.81404,1.26857 1.9478,3.91569 1.75827,4.10522 -0.0543,0.0543 -1.01748,-1.07991 -2.14039,-2.52048 z m 1.94542,-1.40323 c -0.65132,-0.90357 -2.59847,-3.04669 -4.327,-4.7625 -1.72853,-1.71582 -3.05333,-3.11966 -2.94402,-3.11966 0.10932,0 0.94348,0.53141 1.85368,1.18092 2.25526,1.60932 4.63788,4.27616 5.80535,6.49785 0.53359,1.01542 0.93102,1.84622 0.88319,1.84622 -0.0478,0 -0.61988,-0.73927 -1.2712,-1.64283 z m -0.66334,-4.77331 -1.57922,-1.65365 1.65365,1.57922 c 0.9095,0.86857 1.65364,1.61271 1.65364,1.65365 0,0.1955 -0.26111,-0.0431 -1.72807,-1.57922 z m 61.259181,13.64166 c 5.3e-4,-1.27674 -1.61565,0.0526 -2.94954,2.425922 l -0.59517,1.05895 1.77228,-1.58488 c 0.97476,-0.871682 1.77235,-1.726682 1.77243,-1.899992 z m -22.31249,-2.28595 c -0.33574,-1.94558 -1.66851,-5.65287 -1.93603,-5.38535 -0.0519,0.0519 0.13281,0.7547 0.41048,1.56177 0.27768,0.80706 0.7049,2.40418 0.94941,3.54914 0.58466,2.73792 0.72524,3.20279 0.85431,2.8251 0.0592,-0.17323 -0.066,-1.32103 -0.27817,-2.55066 z m 23.36157,0.71412 c 0.35864,-0.52651 1.39344,-1.61222 2.29956,-2.41269 0.90612,-0.80048 1.71106,-1.62105 1.78874,-1.82351 0.17932,-0.46729 -2.43756,1.373 -4.33924,3.05154 -1.27418,1.12465 -1.40724,1.33339 -1.09208,1.71313 0.4978,0.59982 0.60255,0.5586 1.34302,-0.52847 z m -0.95994,-1.92442 c 0.51282,-0.71379 1.94629,-2.16883 3.1855,-3.23341 1.23922,-1.06458 2.21209,-1.97663 2.16195,-2.02677 -0.16936,-0.16936 -4.51906,1.73965 -6.17448,2.70987 -0.90377,0.52968 -1.64322,1.1385 -1.64322,1.35293 0,0.33773 1.26719,2.4952 1.46555,2.4952 0.0398,0 0.49189,-0.58402 1.0047,-1.29782 z m -1.26683,-3.39854 c 0.9457,-0.91213 2.74227,-2.17819 4.48644,-3.16164 2.71894,-1.53307 5.4634,-3.54694 4.23202,-3.10545 -0.29104,0.10435 -1.30307,0.48277 -2.24896,0.84092 -3.52574,1.33501 -8.4682,2.62821 -8.46567,2.21506 5.3e-4,-0.0893 0.56609,-0.38728 1.25677,-0.66222 4.35787,-1.73478 12.00931,-5.7681 11.64104,-6.13637 -0.0553,-0.0553 -0.94353,0.25366 -1.97387,0.68657 -1.87256,0.78676 -6.29786,1.94066 -8.54369,2.22776 -0.726,0.0928 0.5646,-0.44693 3.3073,-1.38316 4.91963,-1.67933 7.05522,-2.59069 8.06979,-3.44378 0.6369,-0.53554 0.59217,-0.53239 -1.20468,0.0848 -1.87141,0.64277 -6.67813,1.59553 -6.90499,1.36867 -0.0665,-0.0665 0.51053,-0.26997 1.28236,-0.45207 2.01589,-0.47562 5.70363,-1.79855 7.09189,-2.54413 0.65485,-0.35169 0.9525,-0.58307 0.66146,-0.51418 -1.46429,0.34664 -3.77336,0.68251 -4.61266,0.67093 -0.6925,-0.01 -0.30096,-0.17914 1.47142,-0.63732 1.32826,-0.34337 2.9356,-0.87138 3.57188,-1.17334 l 1.15686,-0.54902 -1.71979,0.13361 -1.71979,0.13362 1.9541,-0.65003 c 1.89559,-0.63055 2.93335,-1.21326 2.16073,-1.21326 -0.19615,0 0.0479,-0.27169 0.54239,-0.60376 1.44574,-0.97091 1.3496,-3.1004 -0.13997,-3.1004 -0.31753,0 -1.6223,0.66297 -2.89949,1.47328 -1.27719,0.81031 -5.55695,3.29295 -9.51059,5.51699 -7.08177,3.9837 -10.17627,5.80025 -11.63404,6.82949 l -0.74145,0.52349 2.66877,2.51758 c 1.46783,1.38467 3.20742,3.21759 3.86577,4.07316 0.65835,0.85557 1.22497,1.55559 1.25915,1.55559 0.0342,0 0.77197,-0.68461 1.6395,-1.52136 z M 79.857119,156.40549 c 0,-0.5511 2.39045,-4.72411 3.803,-6.63892 4.56151,-6.18341 11.33325,-10.8995 19.563191,-13.62452 2.86226,-0.94773 3.82343,-0.96678 1.18025,-0.0234 -2.75418,0.983 -7.854901,3.55721 -10.523521,5.31097 -5.77622,3.79601 -9.9839,8.10609 -12.88736,13.201 -0.62456,1.09594 -1.13556,1.89464 -1.13556,1.77486 z m -22.09271,-7.55481 c 1.16995,-1.38675 5.19234,-4.68949 7.94353,-6.52234 8.07263,-5.378 19.14641,-8.95786 31.3471,-10.13368 4.303111,-0.4147 7.672911,-0.63068 7.672911,-0.49178 0,0.0694 -1.33945,0.27061 -2.97656,0.44724 -4.599121,0.49619 -12.085421,1.80625 -16.128731,2.82242 -10.91835,2.74403 -19.37997,6.90068 -26.79991,13.16509 -0.87313,0.73715 -1.34938,1.05802 -1.05834,0.71305 z m 38.72156,-2.83452 c 2.22205,-2.59484 6.110731,-5.68591 9.876601,-7.85082 2.13415,-1.22687 1.72344,-0.77578 -0.65085,0.71485 -3.13969,1.97115 -5.19236,3.58308 -8.115251,6.37277 -2.22112,2.1199 -2.3455,2.20539 -1.1105,0.7632 z m -44.40826,-2.26095 c 8.09174,-8.05541 19.26633,-12.9039 33.74945,-14.64338 4.28577,-0.51474 14.205861,-0.76173 17.710171,-0.44095 2.56223,0.23454 2.48281,0.2434 -2.51354,0.2803 -15.150071,0.11188 -27.063061,2.37255 -36.479671,6.92258 -5.2628,2.54294 -9.22112,5.1696 -13.146326,8.72363 -1.262273,1.14291 -1.049944,0.87991 0.679916,-0.84218 z m 72.890871,-4.9785 c -0.67254,-0.58208 -1.42618,-1.05833 -1.67475,-1.05833 -0.24856,0 -1.34265,0.37659 -2.4313,0.83687 -1.43861,0.60824 -2.52567,0.86971 -3.97903,0.95709 -1.84524,0.11094 -2.05957,0.0687 -2.77527,-0.54692 l -0.7756,-0.66714 1.18777,0.13322 c 2.34125,0.26261 6.28139,-0.87844 8.24933,-2.38898 1.53145,-1.1755 2.10364,-2.04522 2.26037,-3.43574 0.16739,-1.48501 -0.48271,-2.66865 -2.06977,-3.76849 -1.26967,-0.87988 -2.88654,-2.69224 -2.88654,-3.23553 0,-0.28734 0.21691,-0.338 0.89915,-0.21001 0.66616,0.12497 1.14872,0.0214 1.8623,-0.3996 0.91279,-0.53855 1.13905,-0.55621 4.32638,-0.33767 1.84976,0.12683 3.36321,0.3411 3.36321,0.47615 0,0.51421 -1.62532,0.68809 -3.70417,0.39629 -1.51739,-0.213 -2.32267,-0.21668 -2.84427,-0.013 -1.18471,0.46261 -0.86104,0.81725 0.58912,0.64551 0.7604,-0.0901 1.82337,-0.0141 2.5159,0.1798 1.03596,0.29005 1.36005,0.27431 2.38118,-0.11566 1.29728,-0.49544 1.7237,-0.39294 1.7237,0.41433 0,1.23584 -2.00121,3.79358 -3.14754,4.02285 -0.82506,0.16501 -2.14413,1.75704 -2.14413,2.58783 0,0.23949 -0.18502,0.87826 -0.41116,1.41949 -0.39547,0.94648 -0.38427,1.03612 0.29319,2.34741 0.3874,0.74985 0.93071,1.61032 1.20734,1.91216 0.27663,0.30184 0.42251,0.62926 0.32416,0.7276 -0.4096,0.4096 -1.18837,0.11683 -2.33957,-0.87952 z"
       id="path21" />
  </g>
</svg>
